<?xml version="1.0" encoding="UTF-8"?>
<svg width="512px" height="512px" viewBox="0 0 512 512" version="1.1" xmlns="http://www.w3.org/2000/svg" xmlns:xlink="http://www.w3.org/1999/xlink">
    <!-- Generator: Sketch 41.2 (35397) - http://www.bohemiancoding.com/sketch -->
    <title>232480-200</title>
    <desc>Created with Sketch.</desc>
    <defs></defs>
    <g id="Page-1" stroke="none" stroke-width="1" fill="none" fill-rule="evenodd">
        <g id="232480-200">
            <g id="Group">
                <path d="M224.512,56.192 C220.1088,38.8096 233.2672,19.9424 250.8544,17.3568 C269.5424,13.5424 288.896,29.4912 288.7424,48.5376 C289.3568,62.5408 279.8592,75.0848 267.2384,80.3328 C267.1872,170.4448 267.3664,260.5312 267.136,350.6432 C267.6992,358.4256 258.2016,364.1856 251.52,360.2432 C247.04,358.1184 245.4272,352.9472 245.76,348.3392 C245.76,258.9952 245.7856,169.6768 245.76,80.3328 C235.7504,75.648 226.6112,67.5328 224.512,56.192 Z" id="Shape" fill="#EEBD31"></path>
                <path d="M95.7696,110.0288 C94.0544,91.136 111.616,73.6 130.5344,75.2896 C143.6928,75.6992 154.3424,85.2992 159.6928,96.768 C173.3376,97.4848 188.2368,94.1824 200.7808,101.12 C212.2752,107.2896 219.52,120.1408 219.1104,133.1712 C218.9568,189.1328 219.4688,245.1456 218.8544,301.1072 C217.9584,313.856 196.3776,312.4992 197.2224,299.6992 C196.9152,244.096 197.3504,188.4672 197.0176,132.864 C197.3504,126.7456 192.8704,120.6784 186.752,119.7056 C177.7408,118.7328 168.6528,119.4496 159.6416,119.3216 C154.88,129.9456 145.536,139.008 133.6064,140.3904 C115.2768,143.8208 96.512,128.6144 95.7696,110.0288 Z" id="Shape" fill="#11335D"></path>
                <path d="M352.2816,97.28 C357.0944,86.4512 366.6688,77.2864 378.8544,76.0576 C397.4912,72.9088 416.2048,88.832 416.2304,107.6992 C417.1264,126.2336 399.7952,142.8992 381.312,141.2096 C368.256,140.7232 357.6064,131.2768 352.3072,119.8848 C342.5536,120.1408 332.6208,118.7584 323.0208,120.7552 C314.8032,123.8016 314.3424,133.4528 314.8288,140.8256 C314.9824,192.9216 314.8032,245.0176 314.9056,297.1136 C315.1104,301.8752 314.24,307.4048 309.5552,309.8368 C302.1824,314.5472 291.9168,307.6608 292.8896,299.1616 C292.7872,243.8144 292.8384,188.4672 292.8384,133.12 C292.2752,116.1984 305.5616,100.1728 322.3296,97.8176 C332.288,96.7168 342.3232,97.4592 352.2816,97.28 Z" id="Shape" fill="#9D1939"></path>
                <path d="M74.2912,204.6464 C73.7536,193.3568 83.584,182.8608 94.9248,182.8608 C119.552,182.6816 144.2048,182.656 168.832,182.8608 C175.9232,182.3232 181.8112,190.3616 179.072,196.9664 C177.3056,202.1632 171.7504,204.7744 166.528,204.288 C142.9248,204.3136 119.3216,204.2624 95.7184,204.288 C95.7184,273.0496 95.7184,341.8368 95.744,410.5984 L416.2304,410.5984 C416.256,341.8368 416.2304,273.0496 416.2304,204.288 C391.8592,204.16 367.4624,204.5184 343.0912,204.16 C335.2832,204.416 329.8304,194.4832 334.3872,188.0832 C337.0496,183.1936 342.9376,182.4512 347.9552,182.6816 C371.0976,182.912 394.2656,182.5536 417.4336,182.8608 C428.8512,182.784 438.7328,193.3824 438.1696,204.7488 C438.2976,273.0496 438.2464,341.376 438.1952,409.7024 C438.9376,421.2736 428.928,432.1024 417.28,432.0256 C367.104,432.2816 316.9024,432.0512 266.7264,432.128 L266.7264,473.6 C288.5888,473.9584 310.528,472.9088 332.3904,474.0864 C343.3984,476.7232 341.5296,494.592 330.1888,494.848 C283.264,495.4624 236.3136,494.8224 189.3888,495.1552 C184.2176,494.9248 177.8176,495.872 174.3616,491.0592 C168.8832,485.0432 173.568,474.1632 181.5808,473.8304 C202.7776,473.216 224.0256,473.8048 245.248,473.6 C245.2224,459.776 245.248,445.952 245.248,432.128 C195.84,432.1024 146.4576,432.1792 97.0752,432.1024 C84.864,433.024 73.4464,422.1696 74.2912,409.8304 C74.2144,341.4528 74.1888,273.0496 74.2912,204.6464 Z" id="Shape" fill="#22313F"></path>
            </g>
        </g>
    </g>
</svg>