<?xml version="1.0" encoding="UTF-8" standalone="no"?>
<!DOCTYPE svg PUBLIC "-//W3C//DTD SVG 1.1//EN" "http://www.w3.org/Graphics/SVG/1.1/DTD/svg11.dtd">
<svg width="17px" height="17px" viewBox="0 0 513 513" version="1.1" xmlns="http://www.w3.org/2000/svg" xmlns:xlink="http://www.w3.org/1999/xlink" xml:space="preserve" style="fill-rule:evenodd;clip-rule:evenodd;stroke-linejoin:round;stroke-miterlimit:1.41421;">
    <path d="M400.07,502.64C396.519,502.64 392.954,501.815 389.672,500.14L256.001,431.95L122.33,500.14C119.047,501.815 115.482,502.64 111.931,502.64C107.203,502.64 102.5,501.176 98.523,498.304C91.562,493.273 88.003,484.767 89.308,476.278L112.303,326.63L6.579,219.236C0.577,213.14 -1.524,204.205 1.133,196.073C3.789,187.942 10.759,181.97 19.202,180.592L167.114,156.454L235.604,21.869C239.508,14.194 247.39,9.362 256.001,9.362C264.612,9.362 272.494,14.195 276.397,21.869L344.887,156.454L492.8,180.592C501.244,181.97 508.213,187.942 510.87,196.073C513.526,204.205 511.425,213.14 505.423,219.236L399.7,326.628L422.693,476.276C423.998,484.766 420.439,493.271 413.478,498.302C409.502,501.175 404.798,502.64 400.07,502.64Z" style="fill:#bb040c;fill-rule:nonzero;"/>
    <path d="M146.585,486.578C139.625,481.548 136.065,473.041 137.37,464.552L160.365,314.905L54.643,207.512C48.64,201.416 46.54,192.481 49.196,184.349C50.428,180.58 52.593,177.284 55.395,174.686L19.202,180.592C10.758,181.97 3.789,187.942 1.133,196.073C-1.524,204.205 0.577,213.14 6.579,219.236L112.303,326.627L89.307,476.276C88.002,484.766 91.561,493.271 98.522,498.302C102.499,501.174 107.202,502.638 111.93,502.638C115.481,502.638 119.047,501.812 122.329,500.138L147.596,487.248C147.257,487.03 146.914,486.817 146.585,486.578Z" style="fill:#bb040c;fill-opacity:0.1;fill-rule:nonzero;"/>
</svg>
