<?xml version="1.0" encoding="UTF-8" standalone="no"?>
<!DOCTYPE svg PUBLIC "-//W3C//DTD SVG 1.1//EN" "http://www.w3.org/Graphics/SVG/1.1/DTD/svg11.dtd">
<svg width="17px" height="17px" viewBox="0 0 512 512" version="1.1" xmlns="http://www.w3.org/2000/svg" xmlns:xlink="http://www.w3.org/1999/xlink" xml:space="preserve" style="fill-rule:evenodd;clip-rule:evenodd;stroke-linejoin:round;stroke-miterlimit:1.41421;">
  <g transform="matrix(1,-0,0,-1,0,511.998)">
    <path d="M83.578,167.256L16.716,167.256C7.524,167.256 0,174.742 0,183.971L0,484.852C0,494.077 7.491,501.565 16.716,501.565L83.578,501.565C92.803,501.565 100.294,494.076 100.294,484.852L100.294,183.971C100.294,174.742 92.769,167.256 83.578,167.256Z" style="fill-rule:nonzero;"/>
  </g>
  <g transform="matrix(1,-0,0,-1,0,511.998)">
    <path d="M470.266,167.256C467.574,166.8 341.527,167.256 341.527,167.256L359.133,119.224C371.281,86.05 363.416,35.397 329.709,17.389C318.734,11.525 303.4,8.58 291.037,11.692C283.947,13.476 277.716,18.17 274.002,24.459C269.731,31.692 270.172,40.135 268.651,48.155C264.794,68.497 255.182,87.838 240.297,102.355C214.345,127.666 133.726,200.686 133.726,200.686L133.726,468.136L412.319,468.136C449.911,468.158 474.547,426.178 456.006,393.387C478.107,379.232 485.666,349.417 472.722,326.525C494.824,312.37 502.382,282.555 489.438,259.663C527.572,235.24 514.823,174.792 470.266,167.256Z" style="fill-rule:nonzero;"/>
  </g>
</svg>
